<?xml version="1.0" standalone="no"?>
<!DOCTYPE svg PUBLIC "-//W3C//DTD SVG 1.1//EN" "http://www.w3.org/Graphics/SVG/1.1/DTD/svg11.dtd" >
<svg xmlns="http://www.w3.org/2000/svg">
<metadata>Generated by IcoMoon</metadata>
<defs>
<font id="meineke-icons" horiz-adv-x="1024">
<font-face units-per-em="1024" ascent="870.850439882698" descent="-153.14956011730206" />
<missing-glyph horiz-adv-x="1024" />
<glyph unicode="&#x20;" horiz-adv-x="0" d="" />
<glyph unicode="&#xe800;" glyph-name="angle-left" horiz-adv-x="366" d="M359.803 528.454q0-8.224-6.168-13.364l-225.134-226.162 225.134-225.134q6.168-5.14 6.168-13.364t-6.168-13.364l-28.784-27.756q-5.14-6.168-12.336-6.168t-13.364 6.168l-267.283 267.283q-6.168 5.14-6.168 12.336t6.168 13.364l267.283 267.283q5.14 6.168 13.364 6.168t12.336-6.168l28.784-28.784q6.168-5.14 6.168-12.336z" />
<glyph unicode="&#xe801;" glyph-name="angle-right" horiz-adv-x="366" d="M341.299 288.928q0-7.196-5.14-12.336l-268.311-267.283q-5.14-6.168-12.336-6.168t-13.364 6.168l-28.784 27.756q-6.168 6.168-6.168 13.364t6.168 13.364l225.134 225.134-225.134 226.162q-6.168 5.14-6.168 13.364t6.168 12.336l28.784 28.784q5.14 6.168 13.364 6.168t12.336-6.168l268.311-267.283q5.14-5.14 5.14-13.364z" />
<glyph unicode="&#xe802;" glyph-name="angle-up" horiz-adv-x="661" d="M616.806 160.426q0-7.196-6.168-12.336l-28.784-28.784q-5.14-6.168-12.336-6.168t-13.364 6.168l-226.162 225.134-225.134-225.134q-5.14-6.168-13.364-6.168t-12.336 6.168l-28.784 28.784q-6.168 5.14-6.168 12.336t6.168 13.364l267.283 267.283q5.14 6.168 12.336 6.168t13.364-6.168l267.283-267.283q6.168-5.14 6.168-13.364z" />
<glyph unicode="&#xe803;" glyph-name="angle-down" horiz-adv-x="661" d="M616.806 417.429q0-7.196-6.168-12.336l-267.283-267.283q-5.14-6.168-13.364-6.168t-12.336 6.168l-267.283 267.283q-6.168 5.14-6.168 12.336t6.168 13.364l28.784 28.784q5.14 6.168 12.336 6.168t13.364-6.168l225.134-225.134 226.162 225.134q5.14 6.168 13.364 6.168t12.336-6.168l28.784-28.784q6.168-5.14 6.168-13.364z" />
<glyph unicode="&#xe804;" glyph-name="down-dir" horiz-adv-x="471" d="M472.884 540.791l-236.442-411.204-236.442 411.204h472.884z" />
<glyph unicode="&#xe805;" glyph-name="left-dir" horiz-adv-x="410" d="M411.204 571.631v-472.884l-411.204 236.442z" />
<glyph unicode="&#xe806;" glyph-name="right-dir" horiz-adv-x="410" d="M0 571.631l411.204-236.442-411.204-236.442v472.884z" />
<glyph unicode="&#xe807;" glyph-name="up-dir" horiz-adv-x="471" d="M0 129.586l236.442 411.204 236.442-411.204h-472.884z" />
<glyph unicode="&#xe808;" glyph-name="search" horiz-adv-x="954" d="M661.011 362.945q0 105.884-75.044 180.93t-181.958 76.072-181.958-76.072-75.044-180.93 75.044-181.958 181.958-75.044 181.958 75.044 75.044 181.958zM955.022-115.080q0-29.812-22.616-51.4t-51.4-21.588q-30.84 0-51.4 21.588l-196.35 196.35q-102.8-70.932-229.246-70.932-82.24 0-157.285 31.868t-128.5 86.352-86.352 128.5-31.868 157.285 31.868 156.257 86.352 129.528 128.5 86.352 157.285 31.868 157.285-31.868 128.5-86.352 86.352-129.528 31.868-156.257q0-126.444-70.932-229.246l196.35-196.35q21.588-21.588 21.588-52.428z" />
<glyph unicode="&#xe809;" glyph-name="cancel-circled" horiz-adv-x="882" d="M658.955 205.66q0 14.392-10.28 25.7l-103.828 103.828 103.828 103.828q10.28 11.308 10.28 25.7 0 15.42-10.28 26.728l-52.428 51.4q-10.28 11.308-25.7 11.308t-25.7-11.308l-103.828-103.828-103.828 103.828q-11.308 11.308-26.728 11.308t-25.7-11.308l-51.4-51.4q-11.308-11.308-11.308-26.728 0-14.392 11.308-25.7l103.828-103.828-103.828-103.828q-11.308-11.308-11.308-25.7 0-15.42 11.308-26.728l51.4-51.4q10.28-11.308 25.7-11.308t26.728 11.308l103.828 103.828 103.828-103.828q10.28-11.308 25.7-11.308t25.7 11.308l52.428 51.4q10.28 11.308 10.28 26.728zM881.005 335.189q0-120.276-58.596-221.022t-160.369-160.369-221.022-59.624-222.050 59.624-159.341 160.369-59.624 221.022 59.624 221.022 159.341 160.369 222.050 59.624 221.022-59.624 160.369-160.369 58.596-221.022z" />
<glyph unicode="&#xe80a;" glyph-name="plus" horiz-adv-x="809" d="M808.016 417.429v-109.996q0-22.616-16.448-39.064t-39.064-15.42h-238.498v-238.498q0-23.644-16.448-39.064t-39.064-16.448h-109.996q-22.616 0-39.064 16.448t-15.42 39.064v238.498h-238.498q-23.644 0-39.064 15.42t-16.448 39.064v109.996q0 23.644 16.448 39.064t39.064 16.448h238.498v238.498q0 22.616 15.42 39.064t39.064 16.448h109.996q23.644 0 39.064-16.448t16.448-39.064v-238.498h238.498q23.644 0 39.064-16.448t16.448-39.064z" />
<glyph unicode="&#xe80b;" glyph-name="exclamation-triangle" d="M586.994 51.458v108.968q0 8.224-5.14 13.364t-12.336 5.14h-111.024q-7.196 0-12.336-5.14t-5.14-13.364v-108.968q0-8.224 5.14-13.364t12.336-6.168h111.024q7.196 0 12.336 6.168t5.14 13.364zM585.966 266.312l10.28 263.171q0 6.168-5.14 10.28-7.196 6.168-14.392 6.168h-125.416q-6.168 0-14.392-6.168-5.14-4.112-5.14-11.308l9.252-262.142q0-6.168 6.168-10.28t13.364-3.084h105.884q8.224 0 14.392 3.084t5.14 10.28zM578.77 801.904l439.988-808.016q20.56-35.98-1.028-71.96-9.252-17.476-26.728-26.728t-35.98-10.28h-882.033q-18.504 0-35.98 10.28t-26.728 26.728q-21.588 35.98-1.028 71.96l441.016 808.016q9.252 17.476 26.728 27.756t37.008 10.28 37.008-10.28 27.756-27.756z" />
<glyph unicode="&#xe80c;" glyph-name="calendar" horiz-adv-x="954" d="M72.988-115.080h165.509v165.509h-165.509v-165.509zM275.507-115.080h182.986v165.509h-182.986v-165.509zM72.988 87.438h165.509v184.014h-165.509v-184.014zM275.507 87.438h182.986v184.014h-182.986v-184.014zM72.988 307.432h165.509v165.509h-165.509v-165.509zM495.5-115.080h184.014v165.509h-184.014v-165.509zM275.507 307.432h182.986v165.509h-182.986v-165.509zM715.495-115.080h165.509v165.509h-165.509v-165.509zM495.5 87.438h184.014v184.014h-184.014v-184.014zM294.011 582.94v165.509q0 7.196-6.168 12.336t-12.336 6.168h-37.008q-7.196 0-12.336-6.168t-6.168-12.336v-165.509q0-7.196 6.168-12.336t12.336-6.168h37.008q7.196 0 12.336 6.168t6.168 12.336zM715.495 87.438h165.509v184.014h-165.509v-184.014zM495.5 307.432h184.014v165.509h-184.014v-165.509zM715.495 307.432h165.509v165.509h-165.509v-165.509zM733.999 582.94v165.509q0 7.196-5.14 12.336t-13.364 6.168h-35.98q-7.196 0-13.364-6.168t-5.14-12.336v-165.509q0-7.196 5.14-12.336t13.364-6.168h35.98q8.224 0 13.364 6.168t5.14 12.336zM955.022 619.948v-735.027q0-29.812-22.616-51.4t-51.4-21.588h-808.016q-29.812 0-51.4 21.588t-21.588 51.4v735.027q0 29.812 21.588 51.4t51.4 21.588h74.016v55.512q0 38.036 26.728 64.764t64.764 26.728h37.008q38.036 0 64.764-26.728t26.728-64.764v-55.512h219.994v55.512q0 38.036 27.756 64.764t64.764 26.728h35.98q38.036 0 65.792-26.728t26.728-64.764v-55.512h72.988q29.812 0 51.4-21.588t22.616-51.4z" />
<glyph unicode="&#xe80d;" glyph-name="trophy" horiz-adv-x="954" d="M263.171 333.133q-43.176 93.548-43.176 212.798h-147.005v-54.484q0-45.232 54.484-93.548t135.697-64.764zM881.005 491.446v54.484h-147.005q0-119.248-42.148-212.798 81.212 17.476 134.669 64.764t54.484 93.548zM955.022 564.435v-72.988q0-41.12-24.672-82.24t-63.736-75.044-99.716-55.512-123.36-25.7q-23.644-30.84-54.484-54.484-21.588-19.532-29.812-41.12t-8.224-51.4q0-30.84 17.476-52.428t55.512-21.588q43.176 0 77.1-25.7t32.896-65.792v-37.008q0-8.224-5.14-13.364t-13.364-5.14h-476.996q-8.224 0-13.364 5.14t-5.14 13.364v37.008q0 40.092 33.924 65.792t76.072 25.7q39.064 0 56.54 21.588t17.476 52.428q0 28.784-8.224 51.4t-29.812 41.12q-30.84 23.644-54.484 54.484-65.792 3.084-124.388 25.7t-98.688 55.512-64.764 75.044-23.644 82.24v72.988q0 23.644 16.448 39.064t39.064 16.448h164.481v54.484q0 38.036 27.756 64.764t64.764 27.756h329.991q38.036 0 64.764-27.756t26.728-64.764v-54.484h165.509q22.616 0 39.064-16.448t16.448-39.064z" />
<glyph unicode="&#xe80e;" glyph-name="connection" horiz-adv-x="1284" d="M642.506 271.452c105.884 0 202.518-44.204 272.423-113.080l-90.464-91.492c-47.288 47.288-111.024 76.072-181.958 76.072s-134.669-28.784-181.958-76.072l-90.464 91.492c69.904 68.876 166.537 113.080 272.423 113.080zM188.126 339.301c121.304 122.332 282.703 189.154 454.38 189.154s333.075-66.82 454.38-189.154l-90.464-90.464c-97.66 97.66-226.162 151.117-363.915 151.117s-266.255-53.456-363.915-151.117l-90.464 90.464zM993.058 714.524c106.912-45.232 202.518-109.996 285.787-193.266v0l-91.492-90.464c-144.949 145.977-339.243 226.162-544.846 226.162s-399.896-80.184-544.846-226.162l-91.492 90.464c83.268 83.268 178.874 148.033 285.787 193.266 111.024 46.26 229.246 70.932 350.551 70.932s239.526-24.672 350.551-70.932zM578.77-50.315c0 35.98 28.784 64.764 63.736 64.764s64.764-28.784 64.764-64.764c0-35.98-28.784-64.764-64.764-64.764s-63.736 28.784-63.736 64.764z" />
<glyph unicode="&#xe80f;" glyph-name="shield" horiz-adv-x="734" d="M624.002 288.928v368.027h-257.002v-652.786q68.876 35.98 122.332 79.156 134.669 104.856 134.669 205.602zM733.999 729.944v-441.016q0-49.344-18.504-97.66t-48.316-85.324-67.848-74.016-71.96-58.596-69.904-44.204-51.4-28.784-23.644-11.308q-7.196-4.112-15.42-4.112t-14.392 4.112q-9.252 4.112-24.672 11.308t-51.4 28.784-69.904 44.204-71.96 58.596-67.848 74.016-47.288 85.324-19.532 97.66v441.016q0 14.392 11.308 25.7t25.7 11.308h661.011q14.392 0 25.7-11.308t10.28-25.7z" />
<glyph unicode="&#xe810;" glyph-name="automobile" horiz-adv-x="1173" d="M275.507 215.94q0 38.036-26.728 64.764t-64.764 26.728-64.764-26.728-27.756-64.764 27.756-64.764 64.764-26.728 64.764 26.728 26.728 64.764zM296.067 399.953h582.882l-51.4 204.574q-1.028 4.112-8.224 10.28t-11.308 5.14h-441.016q-5.14 0-12.336-5.14t-7.196-10.28zM1083.522 215.94q0 38.036-27.756 64.764t-64.764 26.728-64.764-26.728-26.728-64.764 26.728-64.764 64.764-26.728 64.764 26.728 27.756 64.764zM1175.014 271.452v-221.022q0-8.224-5.14-13.364t-13.364-5.14h-55.512v-72.988q0-46.26-31.868-78.128t-78.128-31.868-78.128 31.868-31.868 78.128v72.988h-586.994v-72.988q0-46.26-31.868-78.128t-78.128-31.868-78.128 31.868-32.896 78.128v72.988h-54.484q-8.224 0-13.364 5.14t-5.14 13.364v221.022q0 52.428 38.036 90.464t90.464 38.036h16.448l59.624 239.526q13.364 54.484 59.624 90.464t102.8 37.008h441.016q55.512 0 102.8-37.008t59.624-90.464l59.624-239.526h16.448q53.456 0 90.464-38.036t38.036-90.464z" />
<glyph unicode="&#xe811;" glyph-name="paper-plane" d="M1011.562 833.772q19.532-13.364 15.42-37.008l-145.977-881.005q-3.084-16.448-18.504-25.7-8.224-5.14-18.504-5.14-6.168 0-13.364 3.084l-260.086 106.912-138.781-169.621q-10.28-13.364-27.756-13.364-7.196 0-12.336 2.056-11.308 4.112-17.476 13.364t-7.196 21.588v200.462l495.5 607.554-612.694-531.482-227.19 93.548q-20.56 8.224-22.616 30.84-1.028 23.644 18.504 33.924l953.994 551.014q9.252 5.14 18.504 5.14 11.308 0 20.56-6.168z" />
<glyph unicode="&#xe812;" glyph-name="coffee" horiz-adv-x="1101" d="M955.022 472.942q0 46.26-32.896 78.128t-78.128 31.868h-35.98v-219.994h35.98q46.26 0 78.128 31.868t32.896 78.128zM0 31.925h1028.010q0-60.652-43.176-103.828t-103.828-43.176h-733.999q-60.652 0-103.828 43.176t-43.176 103.828zM1065.018 472.942q0-91.492-64.764-156.257t-156.257-63.736h-35.98v-18.504q0-53.456-38.036-90.464t-90.464-38.036h-404.008q-52.428 0-90.464 38.036t-38.036 90.464v422.512q0 14.392 11.308 25.7t25.7 10.28h659.983q91.492 0 156.257-64.764t64.764-155.229z" />
<glyph unicode="&#xe813;" glyph-name="hand-o-up" d="M733.999-78.071q0 15.42-10.28 25.7t-25.7 11.308-25.7-11.308-11.308-25.7 11.308-25.7 25.7-11.308 25.7 11.308 10.28 25.7zM808.016 360.889q0 107.94-95.604 107.94-15.42 0-32.896-3.084-9.252 17.476-29.812 27.756t-42.148 10.28-39.064-10.28q-28.784 29.812-68.876 29.812-14.392 0-31.868-5.14t-26.728-14.392v189.154q0 29.812-22.616 51.4t-51.4 22.616q-28.784 0-51.4-22.616t-21.588-51.4v-329.991q-11.308 0-27.756 8.224t-31.868 19.532-39.064 18.504-48.316 8.224q-38.036 0-56.54-24.672t-17.476-66.82q0-13.364 80.184-51.4 25.7-13.364 37.008-21.588 37.008-22.616 83.268-63.736t60.652-58.596q32.896-39.064 32.896-80.184v-18.504h366.999v18.504q0 41.12 18.504 95.604t37.008 111.024 18.504 103.828zM881.005 362.945q0-76.072-39.064-184.014-33.924-94.576-33.924-128.5v-165.509q0-29.812-21.588-51.4t-52.428-21.588h-366.999q-29.812 0-51.4 21.588t-21.588 51.4v165.509q0 6.168-3.084 12.336t-8.224 13.364-10.28 13.364-12.336 13.364-12.336 12.336-12.336 10.28-10.28 8.224q-42.148 37.008-74.016 57.568-11.308 7.196-34.952 18.504t-41.12 21.588-37.008 23.644-27.756 30.84-10.28 40.092q0 71.96 38.036 118.22t108.968 47.288q39.064 0 72.988-12.336v213.826q0 59.624 44.204 103.828t102.8 43.176q59.624 0 103.828-43.176t43.176-103.828v-96.632q35.98-2.056 67.848-21.588 12.336 2.056 24.672 2.056 58.596 0 102.8-33.924 79.156 0 125.416-49.344t46.26-130.556z" />
<glyph unicode="&#xe814;" glyph-name="info-circled" d="M0 335.189q0 212.798 151.117 363.915t362.887 150.089 363.915-150.089 150.089-363.915-150.089-363.915-363.915-150.089-362.887 150.089-151.117 363.915zM383.447 403.037l8.224-40.092 35.98 8.224q25.7 0 25.7-35.98v-250.834q0-20.56-13.364-29.812-18.504-12.336-54.484-20.56l8.224-35.98q86.352 8.224 121.304 8.224t121.304-8.224l8.224 35.98q-35.98 10.28-54.484 20.56-10.28 6.168-11.308 11.308-2.056 4.112-2.056 18.504v246.722q0 50.372 15.42 92.52l-19.532 23.644q-32.896 0-92.52-13.364t-96.632-30.84zM419.428 603.5q0-30.84 20.56-51.4 21.588-18.504 57.568-18.504t58.596 19.532 22.616 50.372-22.616 50.372-58.596 18.504-57.568-17.476q-20.56-20.56-20.56-51.4z" />
<glyph unicode="&#xe815;" glyph-name="tags" horiz-adv-x="1101" d="M257.002 582.94q0 30.84-21.588 52.428t-51.4 21.588-52.428-21.588-21.588-52.428 21.588-51.4 52.428-21.588 51.4 21.588 21.588 51.4zM868.668 252.948q0-30.84-20.56-52.428l-281.675-281.675q-22.616-21.588-52.428-21.588-30.84 0-51.4 21.588l-410.176 410.176q-21.588 21.588-37.008 58.596t-15.42 66.82v238.498q0 29.812 21.588 51.4t51.4 22.616h239.526q29.812 0 66.82-15.42t58.596-37.008l410.176-410.176q20.56-21.588 20.56-51.4zM1089.69 252.948q0-30.84-21.588-52.428l-281.675-281.675q-22.616-21.588-52.428-21.588-20.56 0-33.924 8.224t-29.812 25.7l269.339 269.339q21.588 21.588 21.588 52.428 0 29.812-21.588 51.4l-410.176 410.176q-21.588 21.588-58.596 37.008t-66.82 15.42h128.5q29.812 0 66.82-15.42t58.596-37.008l410.176-410.176q21.588-21.588 21.588-51.4z" />
<glyph unicode="&#xe816;" glyph-name="map-marker" horiz-adv-x="589" d="M441.016 472.942q0 60.652-43.176 103.828t-103.828 43.176-103.828-43.176-43.176-103.828 43.176-103.828 103.828-43.176 103.828 43.176 43.176 103.828zM586.994 472.942q0-62.708-18.504-102.8l-208.686-444.1q-9.252-18.504-27.756-29.812t-38.036-11.308-39.064 11.308-26.728 29.812l-209.714 444.1q-18.504 40.092-18.504 102.8 0 121.304 86.352 207.658t207.658 86.352 207.658-86.352 85.324-207.658z" />
<glyph unicode="&#xe817;" glyph-name="share-square-o" horiz-adv-x="954" d="M808.016 272.48v-148.033q0-68.876-48.316-117.192t-117.192-48.316h-476.996q-68.876 0-117.192 48.316t-48.316 117.192v476.996q0 67.848 48.316 117.192t117.192 48.316h145.977q7.196 0 13.364-6.168t5.14-12.336q0-15.42-15.42-18.504-44.204-15.42-76.072-34.952-5.14-2.056-9.252-2.056h-63.736q-38.036 0-64.764-26.728t-27.756-64.764v-476.996q0-38.036 27.756-64.764t64.764-27.756h476.996q38.036 0 64.764 27.756t26.728 64.764v122.332q0 11.308 10.28 16.448 16.448 8.224 31.868 21.588 8.224 9.252 19.532 4.112 12.336-5.14 12.336-16.448zM943.714 557.239l-219.994-219.994q-10.28-11.308-25.7-11.308-7.196 0-14.392 3.084-22.616 9.252-22.616 33.924v109.996h-91.492q-186.070 0-251.862-75.044-67.848-79.156-42.148-271.395 2.056-13.364-11.308-19.532-5.14-1.028-7.196-1.028-9.252 0-14.392 7.196-6.168 8.224-12.336 17.476t-22.616 40.092-28.784 56.54-21.588 65.792-10.28 69.904q0 27.756 2.056 52.428t8.224 51.4 15.42 50.372 27.756 46.26 39.064 43.176 53.456 34.952 71.96 27.756 91.492 17.476 113.080 6.168h91.492v109.996q0 24.672 22.616 33.924 7.196 3.084 14.392 3.084 14.392 0 25.7-10.28l219.994-221.022q11.308-10.28 11.308-25.7t-11.308-25.7z" />
<glyph unicode="&#xe818;" glyph-name="check-fancy" d="M745.307 648.732c-44.204-46.26-87.38-97.66-95.604-116.164s-30.84-56.54-48.316-86.352c-54.484-83.268-104.856-188.126-104.856-216.91s-52.428-82.24-82.24-82.24c-11.308 0-20.56 16.448-20.56 39.064 0 41.12-59.624 149.061-82.24 149.061-8.224 0-28.784-15.42-46.26-33.924s-41.12-34.952-51.4-34.952c-21.588 0-42.148-37.008-42.148-78.128 0-14.392 8.224-24.672 18.504-24.672 32.896 0 130.556-85.324 177.846-154.201 46.26-66.82 106.912-90.464 118.22-46.26 30.84 102.8 156.257 276.535 286.815 395.784 82.24 76.072 87.38 84.296 66.82 122.332-12.336 21.588-17.476 61.68-10.28 92.52 5.14 28.784 15.42 77.1 20.56 103.828 15.42 74.016-14.392 65.792-104.856-28.784z" />
<glyph unicode="&#xe819;" glyph-name="comments" d="M808.016 399.953q0-80.184-54.484-148.033t-147.005-106.912-202.518-39.064q-49.344 0-100.744 9.252-71.96-50.372-159.341-74.016-21.588-5.14-49.344-9.252h-2.056q-6.168 0-12.336 5.14t-6.168 12.336q-1.028 1.028-1.028 3.084t1.028 4.112 1.028 3.084l1.028 3.084t2.056 3.084 2.056 3.084 3.084 3.084 2.056 2.056q3.084 3.084 13.364 14.392t15.42 17.476 12.336 16.448 14.392 21.588 11.308 25.7q-70.932 41.12-111.024 101.772t-41.12 128.5q0 79.156 54.484 147.005t147.005 106.912 202.518 39.064 202.518-39.064 147.005-106.912 54.484-147.005zM1028.010 252.948q0-68.876-41.12-129.528t-111.024-100.744q5.14-13.364 11.308-25.7t14.392-21.588 13.364-16.448 14.392-17.476 13.364-14.392q0 0 2.056-2.056t3.084-3.084 2.056-3.084 2.056-3.084l1.028-3.084t1.028-3.084 1.028-4.112-1.028-3.084q-2.056-8.224-7.196-13.364t-12.336-4.112q-28.784 4.112-49.344 9.252-88.408 23.644-160.369 74.016-51.4-9.252-100.744-9.252-155.229 0-270.367 76.072 32.896-3.084 50.372-3.084 92.52 0 176.818 26.728t152.145 74.016q70.932 52.428 109.996 121.304t38.036 145.977q0 44.204-13.364 86.352 74.016-40.092 117.192-101.772t43.176-131.585z" />
<glyph unicode="&#xe81a;" glyph-name="facebook" horiz-adv-x="589" d="M549.986 841.997v-151.117h-89.436q-49.344 0-66.82-20.56t-17.476-61.68v-108.968h168.593l-22.616-169.621h-145.977v-435.876h-175.79v435.876h-145.977v169.621h145.977v125.416q0 106.912 59.624 165.509t159.341 58.596q84.296 0 130.556-7.196z" />
<glyph unicode="&#xe81b;" glyph-name="twitter" horiz-adv-x="954" d="M929.322 605.556q-38.036-55.512-92.52-95.604 0-8.224 0-23.644 0-75.044-21.588-149.061t-65.792-142.893-105.884-120.276-148.033-84.296-186.070-30.84q-155.229 0-283.731 83.268 19.532-2.056 44.204-2.056 129.528 0 230.274 79.156-60.652 1.028-107.94 37.008t-65.792 91.492q19.532-3.084 34.952-3.084 24.672 0 49.344 6.168-64.764 13.364-106.912 63.736t-42.148 118.22v2.056q39.064-21.588 84.296-23.644-38.036 25.7-60.652 65.792t-22.616 88.408q0 50.372 25.7 93.548 69.904-85.324 168.593-136.725t213.826-56.54q-5.14 21.588-5.14 42.148 0 77.1 54.484 131.585t130.556 53.456q81.212 0 135.697-58.596 62.708 12.336 118.22 45.232-21.588-65.792-82.24-101.772 53.456 5.14 106.912 27.756z" />
<glyph unicode="&#xe81c;" glyph-name="google-plus" horiz-adv-x="954" d="M421.484 383.505q0-20.56 18.504-40.092t44.204-39.064 52.428-42.148 44.204-59.624 18.504-82.24q0-51.4-27.756-98.688-41.12-69.904-121.304-102.8t-170.649-33.924q-76.072 0-141.865 24.672t-97.66 78.128q-21.588 34.952-21.588 76.072 0 46.26 25.7 85.324t67.848 65.792q75.044 47.288 231.302 57.568-18.504 24.672-26.728 43.176t-9.252 41.12q0 20.56 12.336 49.344-26.728-3.084-39.064-3.084-85.324 0-142.893 55.512t-58.596 140.837q0 47.288 20.56 90.464t56.54 76.072q44.204 37.008 104.856 55.512t125.416 18.504h239.526l-79.156-50.372h-75.044q42.148-35.98 63.736-76.072t21.588-91.492q0-42.148-13.364-75.044t-33.924-53.456-40.092-37.008-33.924-34.952-14.392-38.036zM338.215 437.989q21.588 0 44.204 10.28t38.036 24.672q30.84 32.896 30.84 91.492 0 32.896-10.28 70.932t-27.756 75.044-48.316 58.596-66.82 23.644q-24.672 0-47.288-11.308t-38.036-29.812q-26.728-33.924-26.728-91.492 0-26.728 5.14-56.54t18.504-58.596 29.812-53.456 43.176-38.036 55.512-15.42zM339.243-62.651q32.896 0 63.736 7.196t56.54 22.616 42.148 42.148 15.42 62.708q0 14.392-4.112 27.756t-8.224 24.672-15.42 23.644-16.448 19.532-22.616 20.56-20.56 16.448-23.644 17.476-21.588 14.392q-8.224 1.028-26.728 1.028-30.84 0-60.652-4.112t-61.68-14.392-55.512-25.7-39.064-43.176-15.42-60.652q0-40.092 19.532-70.932t52.428-47.288 68.876-25.7 72.988-8.224zM803.904 440.046h122.332v-61.68h-122.332v-125.416h-60.652v125.416h-121.304v61.68h121.304v124.388h60.652v-124.388z" />
<glyph unicode="&#xe81d;" glyph-name="youtube" d="M0-54.427v779.231h1028.010v-779.231h-1028.010zM364.943 106.97l359.803 226.162-359.803 225.134v-451.296z" />
<glyph unicode="&#xe81e;" glyph-name="yelp" horiz-adv-x="763" d="M0 244.724v-13.364q0-44.204 6.168-70.932 5.14-18.504 19.532-26.728t29.812-2.056l209.714 64.764q22.616 7.196 31.868 26.728 5.14 10.28 5.14 20.56t-5.14 19.532q-9.252 19.532-32.896 26.728l-209.714 84.296q-14.392 3.084-27.756-8.224t-17.476-30.84q-8.224-37.008-9.252-90.464zM89.436 735.084q-5.14 8.224-5.14 16.448 0 9.252 6.168 18.504 12.336 17.476 39.064 27.756 83.268 31.868 175.79 47.288h5.14q46.26 0 50.372-39.064 25.7-321.767 25.7-404.008 0-33.924-27.756-41.12-6.168-2.056-12.336-2.056-21.588 0-38.036 25.7-152.145 238.498-218.966 350.551zM160.369-52.371l142.893 171.677q19.532 21.588 39.064 21.588 8.224 0 16.448-3.084 25.7-11.308 25.7-46.26 0-5.14-1.028-10.28v-228.218q-2.056-14.392-17.476-22.616-9.252-5.14-18.504-5.14-8.224 0-16.448 3.084-37.008 6.168-87.38 26.728t-75.044 38.036q-18.504 14.392-18.504 30.84 0 11.308 10.28 23.644zM462.604 295.096q-6.168 12.336-6.168 23.644 0 17.476 15.42 33.924l133.641 184.014q7.196 8.224 20.56 8.224 3.084 0 7.196-1.028 17.476-2.056 29.812-18.504 25.7-26.728 54.484-72.988t38.036-75.044q3.084-8.224 3.084-15.42 0-9.252-4.112-16.448-8.224-13.364-23.644-16.448l-214.854-54.484q-8.224-2.056-16.448-2.056-23.644 0-37.008 22.616zM474.94 166.594q-9.252-12.336-9.252-24.672 0-16.448 13.364-32.896l117.192-196.35q7.196-9.252 24.672-9.252h3.084q19.532 1.028 33.924 15.42 27.756 24.672 57.568 64.764t42.148 71.96q4.112 11.308 4.112 21.588 0 7.196-3.084 13.364-5.14 14.392-19.532 19.532l-210.742 71.96q-10.28 4.112-19.532 4.112-21.588 0-33.924-19.532z" />
<glyph unicode="&#xe81f;" glyph-name="foursquare" d="M0-178.817v1028.010h865.584l-235.414-320.739-69.904 67.848q-35.98 31.868-67.848 0l-18.504-16.448q-4.112 6.168-9.252 13.364t-11.308 13.364q-65.792 71.96-156.257 74.016-78.128-2.056-134.669-50.372-63.736-59.624-71.96-141.865-4.112-88.408 48.316-151.117 61.68-65.792 141.865-71.96l211.77-208.686q35.98-32.896 67.848 0l236.442 236.442q32.896 33.924 0 66.82l231.302 194.294v-732.971h-1028.010zM130.556 471.914q0 67.848 48.316 117.192t117.192 49.344 117.192-49.344 48.316-117.192q0-31.868-11.308-62.708v-4.112q25.7-35.98 42.148-55.512 15.42-22.616 17.476-24.672 4.112-6.168 12.336-6.168t12.336 8.224l381.391 522.228h112.052v-240.554l-495.5-419.428q-4.112-2.056-10.28-2.056h-2.056q-4.112 0-8.224 2.056l-156.257 128.5h-2.056q-28.784-10.28-58.596-10.28-67.848 0-116.164 48.316t-48.316 116.164z" />
<glyph unicode="&#xe820;" glyph-name="user" d="M387.559 788.54c-19.532-9.252-42.148-16.448-51.4-16.448-22.616 0-125.416-64.764-166.537-103.828-39.064-35.98-114.108-154.201-114.108-176.818 0-9.252-8.224-33.924-16.448-54.484-21.588-52.428-21.588-173.733 0-225.134 8.224-21.588 16.448-47.288 16.448-54.484 0-22.616 63.736-125.416 103.828-166.537 34.952-39.064 153.173-114.108 176.818-114.108 9.252 0 32.896-8.224 54.484-16.448 21.588-9.252 72.988-17.476 112.052-17.476 40.092 0 90.464 8.224 113.080 17.476 20.56 8.224 45.232 16.448 54.484 16.448 22.616 0 140.837 75.044 176.818 114.108 39.064 41.12 103.828 143.921 103.828 166.537 0 7.196 7.196 32.896 16.448 54.484 20.56 51.4 20.56 172.705 0 225.134-9.252 20.56-16.448 46.26-16.448 54.484 0 21.588-64.764 124.388-103.828 166.537-35.98 39.064-154.201 114.108-176.818 114.108-9.252 0-33.924 7.196-54.484 16.448-50.372 20.56-177.846 20.56-228.218 0zM674.375 697.048c87.38-41.12 162.425-116.164 205.602-206.63 27.756-58.596 31.868-79.156 31.868-166.537-1.028-83.268-5.14-108.968-30.84-163.453-31.868-70.932-115.136-164.481-167.565-191.21-59.624-30.84-162.425-59.624-210.742-59.624-46.26 0-184.014 35.98-208.686 55.512-47.288 37.008-105.884 92.52-105.884 100.744 0 5.14 7.196 9.252 17.476 9.252 9.252 0 41.12 20.56 69.904 45.232 60.652 53.456 149.061 87.38 223.078 87.38 75.044 0 171.677-40.092 226.162-94.576 34.952-33.924 53.456-45.232 69.904-41.12 13.364 3.084 23.644 14.392 23.644 25.7 0 25.7-66.82 91.492-127.472 128.5-54.484 30.84-58.596 38.036-32.896 59.624 26.728 21.588 60.652 104.856 59.624 145.977 0 54.484-43.176 129.528-96.632 170.649-44.204 33.924-54.484 37.008-124.388 37.008-77.1 0-109.996-12.336-156.257-57.568-44.204-44.204-57.568-77.1-57.568-153.173-1.028-66.82 2.056-80.184 34.952-125.416l35.98-52.428-25.7-9.252c-64.764-28.784-139.809-97.66-139.809-128.5 0-51.4-22.616-37.008-57.568 35.98-32.896 67.848-37.008 85.324-37.008 174.761s5.14 107.94 35.98 171.677c33.924 69.904 108.968 153.173 168.593 187.098 120.276 66.82 254.946 72.988 376.251 14.392zM583.91 544.903c17.476-15.42 41.12-47.288 50.372-71.96 16.448-40.092 16.448-47.288-1.028-89.436-19.532-50.372-90.464-108.968-132.613-108.968-35.98 0-91.492 29.812-121.304 64.764-18.504 22.616-24.672 43.176-25.7 91.492 0 55.512 3.084 64.764 41.12 100.744 35.98 37.008 46.26 41.12 98.688 41.12 45.232 0 64.764-5.14 90.464-27.756zM298.123 9.309c0-29.812 4.112-34.952 25.7-30.84 17.476 2.056 24.672 10.28 24.672 30.84 0 19.532-7.196 28.784-24.672 30.84-21.588 3.084-25.7-1.028-25.7-30.84zM625.030 19.589c-9.252-27.756 6.168-47.288 33.924-41.12 13.364 2.056 21.588 14.392 24.672 33.924 3.084 25.7 0 29.812-24.672 29.812-17.476 0-29.812-7.196-33.924-22.616z" />
<glyph unicode="&#xe821;" glyph-name="question-comment" horiz-adv-x="877" d="M302.235 816.296c-274.479-108.968-381.391-456.436-208.686-674.375 54.484-69.904 57.568-93.548 30.84-175.79-51.4-141.865-43.176-154.201 62.708-75.044 72.988 54.484 139.809 71.96 239.526 71.96 177.846 0 314.571 82.24 389.615 236.442 76.072 157.285 76.072 260.086-3.084 411.204-93.548 184.014-325.879 277.563-510.92 205.602zM595.218 559.295c37.008-57.568 33.924-76.072-35.98-160.369-45.232-51.4-105.884-93.548-138.781-93.548-72.988 0-72.988 32.896 6.168 132.613 48.316 60.652 51.4 79.156 17.476 79.156-26.728 0-51.4-15.42-56.54-33.924-12.336-39.064-115.136 0-115.136 45.232 0 121.304 247.75 144.949 322.795 30.84zM498.584 213.884c0-23.644-29.812-48.316-65.792-54.484-54.484-8.224-69.904 6.168-69.904 54.484s15.42 63.736 69.904 54.484c35.98-6.168 65.792-29.812 65.792-54.484z" />
<glyph unicode="&#xe822;" glyph-name="medal" horiz-adv-x="589" d="M31.868 822.464c-4.112-16.448-7.196-115.136-7.196-222.050 0-156.257 3.084-197.378 19.532-222.050 11.308-17.476 27.756-30.84 37.008-30.84 13.364 0 16.448 41.12 16.448 224.106 0 244.666-4.112 277.563-35.98 277.563-12.336 0-24.672-12.336-29.812-26.728zM472.884 822.464c-4.112-16.448-8.224-128.5-8.224-250.834 0-182.986 4.112-224.106 17.476-224.106 8.224 0 25.7 13.364 37.008 30.84 15.42 24.672 19.532 65.792 19.532 222.050 0 215.882-5.14 248.778-37.008 248.778-12.336 0-24.672-12.336-28.784-26.728zM185.042 809.1c-10.28-12.336-13.364-84.296-11.308-248.778l4.112-230.274h207.658l2.056 232.33c4.112 231.302-3.084 284.759-34.952 252.89-18.504-18.504-122.332-19.532-139.809-3.084-9.252 10.28-16.448 7.196-27.756-3.084zM261.114 228.276c-9.252-2.056-16.448-15.42-16.448-28.784 0-40.092-53.456-84.296-102.8-84.296-53.456 0-80.184-11.308-80.184-31.868 0-10.28 3.084-17.476 9.252-17.476 5.14 0 30.84-19.532 56.54-44.204 46.26-42.148 47.288-45.232 32.896-83.268-30.84-72.988-30.84-92.52-4.112-92.52 15.42 0 29.812 6.168 33.924 12.336 4.112 7.196 26.728 20.56 49.344 29.812 35.98 15.42 48.316 15.42 83.268 0 23.644-9.252 45.232-22.616 50.372-29.812 4.112-6.168 18.504-12.336 32.896-12.336 26.728 0 26.728 19.532-3.084 92.52-15.42 38.036-13.364 41.12 32.896 83.268 25.7 24.672 51.4 44.204 57.568 44.204 5.14 0 8.224 7.196 8.224 17.476 0 20.56-26.728 31.868-80.184 31.868-48.316 0-102.8 44.204-102.8 83.268 0 18.504-28.784 44.204-41.12 38.036-1.028 0-9.252-4.112-16.448-8.224z" />
<glyph unicode="&#xe823;" glyph-name="sponsor" horiz-adv-x="618" d="M226.162 816.296c-123.36-24.672-172.705-78.128-197.378-213.826-32.896-160.369 37.008-349.523 164.481-431.764 90.464-61.68 119.248-61.68 205.602-16.448 143.921 78.128 226.162 254.946 193.266 427.652-37.008 193.266-164.481 275.507-365.971 234.386zM423.54 717.608c115.136-90.464 131.585-283.731 28.784-415.316-111.024-139.809-176.818-139.809-287.843 0-135.697 172.705-45.232 464.66 143.921 464.66 24.672 0 78.128-24.672 115.136-49.344zM259.058-1.999c-28.784-12.336-53.456-45.232-53.456-74.016 0-61.68 78.128-98.688 156.257-74.016 24.672 12.336 49.344 45.232 49.344 74.016 0 61.68-78.128 98.688-152.145 74.016z" />
<glyph unicode="&#xe824;" glyph-name="up-circled" horiz-adv-x="882" d="M737.083 336.217q0 15.42-11.308 25.7l-259.058 259.058q-10.28 11.308-25.7 11.308t-26.728-11.308l-259.058-259.058q-10.28-10.28-10.28-25.7t10.28-26.728l51.4-51.4q11.308-10.28 26.728-10.28t25.7 10.28l107.94 107.94v-287.843q0-14.392 11.308-25.7t25.7-11.308h72.988q15.42 0 25.7 11.308t11.308 25.7v287.843l107.94-107.94q11.308-11.308 26.728-11.308t25.7 11.308l51.4 51.4q11.308 11.308 11.308 26.728zM881.005 335.189q0-120.276-58.596-221.022t-160.369-160.369-221.022-59.624-222.050 59.624-159.341 160.369-59.624 221.022 59.624 221.022 159.341 160.369 222.050 59.624 221.022-59.624 160.369-160.369 58.596-221.022z" />
<glyph unicode="&#xe825;" glyph-name="wrench" horiz-adv-x="954" d="M219.994 5.197q0 14.392-10.28 25.7t-25.7 10.28-26.728-10.28-10.28-25.7 10.28-26.728 26.728-10.28 25.7 10.28 10.28 26.728zM590.078 245.752l-391.671-391.671q-21.588-20.56-51.4-20.56t-52.428 20.56l-60.652 62.708q-21.588 20.56-21.588 51.4 0 29.812 21.588 52.428l390.643 390.643q22.616-56.54 65.792-99.716t99.716-65.792zM952.966 495.558q0-22.616-12.336-60.652-27.756-77.1-94.576-125.416t-148.033-47.288q-106.912 0-181.958 75.044t-75.044 181.958 75.044 180.93 181.958 76.072q32.896 0 68.876-10.28t61.68-26.728q9.252-6.168 9.252-15.42t-9.252-16.448l-167.565-96.632v-128.5l111.024-61.68q2.056 2.056 45.232 27.756t77.1 46.26 41.12 20.56q8.224 0 13.364-5.14t4.112-14.392z" />
<glyph unicode="&#xe826;" glyph-name="info-circled-alt" horiz-adv-x="963" d="M0 335.189q0 97.66 38.036 187.098t102.8 153.173 153.173 102.8 188.126 38.036q97.66 0 187.098-38.036t153.173-102.8 102.8-153.173 38.036-187.098q0-97.66-38.036-187.098t-102.8-154.201-153.173-102.8-187.098-38.036-188.126 38.036-153.173 102.8-102.8 154.201-38.036 187.098zM120.276 335.189q0-72.988 28.784-140.837t77.1-115.136 115.136-77.1 140.837-28.784 139.809 28.784 115.136 77.1 77.1 115.136 28.784 140.837-28.784 139.809-77.1 115.136-115.136 77.1-139.809 28.784-140.837-28.784-115.136-77.1-77.1-115.136-28.784-139.809zM409.148 509.95q0 28.784 20.56 46.26t52.428 17.476q32.896 0 52.428-17.476t19.532-46.26-19.532-47.288-52.428-17.476q-32.896 0-52.428 17.476t-20.56 47.288zM414.288 96.69v307.375h135.697v-307.375h-135.697z" />
<glyph unicode="&#xe827;" glyph-name="garage" horiz-adv-x="1275" d="M578.77 831.716c0-11.308-11.308-23.644-25.7-29.812-15.42-7.196-42.148-22.616-62.708-34.952-18.504-13.364-46.26-28.784-58.596-35.98-13.364-7.196-39.064-22.616-59.624-34.952-18.504-13.364-46.26-28.784-58.596-35.98-13.364-7.196-38.036-21.588-55.512-32.896-16.448-10.28-74.016-45.232-125.416-77.1-51.4-30.84-102.8-65.792-114.108-78.128-30.84-33.924-19.532-86.352 19.532-99.716 29.812-11.308 58.596 4.112 301.207 151.117l269.339 162.425 70.932-37.008c39.064-20.56 87.38-47.288 105.884-59.624 20.56-12.336 44.204-26.728 53.456-31.868 16.448-8.224 174.761-97.66 212.798-121.304 9.252-6.168 44.204-24.672 76.072-41.12 53.456-29.812 62.708-30.84 103.828-17.476 35.98 12.336 44.204 20.56 44.204 45.232 0 21.588-10.28 37.008-32.896 49.344-17.476 12.336-67.848 42.148-114.108 68.876-45.232 26.728-91.492 54.484-100.744 60.652-9.252 7.196-25.7 15.42-34.952 19.532-10.28 5.14-54.484 29.812-100.744 56.54-45.232 26.728-91.492 52.428-100.744 57.568-9.252 4.112-32.896 18.504-53.456 31.868-18.504 12.336-47.288 27.756-60.652 34.952-15.42 6.168-27.756 18.504-27.756 29.812s-11.308 17.476-34.952 17.476c-23.644 0-35.98-6.168-35.98-17.476zM424.568 451.354c-16.448-11.308-42.148-40.092-54.484-67.848-30.84-61.68-58.596-125.416-67.848-151.117-3.084-13.364-23.644-23.644-54.484-28.784-66.82-10.28-82.24-37.008-82.24-150.089 0-81.212 3.084-95.604 29.812-120.276 15.42-16.448 35.98-29.812 46.26-29.812 8.224 0 32.896-18.504 52.428-42.148 32.896-37.008 43.176-41.12 86.352-38.036 40.092 3.084 53.456 9.252 64.764 32.896 20.56 41.12 40.092 45.232 180.93 46.26l124.388 1.028 32.896-41.12c27.756-33.924 40.092-41.12 78.128-41.12 34.952 0 50.372 8.224 80.184 41.12 20.56 22.616 47.288 41.12 60.652 41.12 12.336 0 35.98 11.308 54.484 25.7 27.756 21.588 30.84 29.812 30.84 121.304 0 115.136-17.476 149.061-75.044 149.061-48.316 0-56.54 7.196-84.296 64.764-11.308 25.7-28.784 62.708-37.008 80.184-9.252 19.532-16.448 39.064-16.448 45.232 0 15.42-35.98 51.4-67.848 68.876-15.42 8.224-89.436 12.336-189.154 12.336-128.5 0-168.593-4.112-193.266-19.532zM736.055 385.561c56.54-28.784 98.688-123.36 70.932-162.425-15.42-22.616-29.812-23.644-185.042-23.644-154.201 0-170.649 2.056-190.182 23.644-21.588 22.616-20.56 25.7 9.252 87.38 22.616 45.232 41.12 66.82 63.736 75.044 46.26 17.476 200.462 17.476 231.302 0zM405.036 128.558c45.232-35.98 50.372-63.736 19.532-106.912-35.98-47.288-87.38-48.316-125.416-3.084-35.98 40.092-33.924 57.568 7.196 99.716 41.12 40.092 58.596 42.148 98.688 10.28zM943.714 121.362c44.204-37.008 46.26-61.68 10.28-102.8-44.204-52.428-102.8-39.064-138.781 28.784-18.504 33.924 32.896 103.828 79.156 104.856 7.196 0 29.812-14.392 49.344-30.84z" />
<glyph unicode="&#xe828;" glyph-name="print" horiz-adv-x="968" d="M890.257 555.183c41.12 0 77.1-35.98 77.1-80.184v-376.251c0-43.176-35.98-79.156-77.1-79.156h-78.128l34.952-157.285h-710.355l27.756 157.285h-84.296c-46.26 0-80.184 35.98-80.184 79.156v376.251c0 44.204 33.924 80.184 80.184 80.184h98.688v120.276h34.952v132.613h541.762v-132.613h34.952v-120.276h99.716zM249.806 759.756v-300.179h469.8v300.179h-469.8zM133.641 359.861c30.84 0 56.54 24.672 56.54 55.512 0 28.784-25.7 54.484-56.54 54.484-29.812 0-55.512-25.7-55.512-54.484 0-30.84 25.7-55.512 55.512-55.512zM198.406-90.408h582.882l-48.316 248.778h-497.556zM457.464 25.757h-142.893v35.98h142.893v-35.98zM661.011 25.757h-142.893v35.98h142.893v-35.98z" />
<glyph unicode="&#xe829;" glyph-name="arrow-tip" d="M506.808 608.64c-259.058-131.585-470.828-248.778-470.828-263.171 0-17.476 102.8-27.756 230.274-27.756h230.274v-230.274c0-128.5 10.28-231.302 27.756-231.302 39.064 0 506.808 950.91 474.94 968.386-13.364 10.28-237.47-88.408-492.416-215.882z" />
<glyph unicode="&#xe82a;" glyph-name="attach" horiz-adv-x="1144" d="M1144.174 546.959q0-68.876-26.728-132.613t-76.072-113.080l-460.548-456.436-63.736 62.708 460.548 456.436q76.072 74.016 76.072 182.986 0 91.492-59.624 152.145t-152.145 59.624q-104.856 0-185.042-77.1l-506.808-502.696q-60.652-60.652-60.652-136.725 0-58.596 38.036-96.632t96.632-37.008q77.1 0 137.753 60.652l387.559 382.419q54.484 56.54 54.484 99.716 0 21.588-16.448 33.924t-39.064 12.336q-49.344 0-88.408-41.12l-349.523-345.411-62.708 62.708 348.495 345.411q67.848 67.848 152.145 67.848 59.624 0 102.8-38.036t43.176-96.632q0-80.184-81.212-163.453l-387.559-382.419q-86.352-86.352-201.49-86.352-95.604 0-159.341 62.708t-64.764 159.341q0 113.080 86.352 199.434l506.808 502.696q106.912 103.828 248.778 103.828 128.5 0 215.882-86.352t86.352-214.854z" />
<glyph unicode="&#xe82b;" glyph-name="thumbs-up" horiz-adv-x="882" d="M147.005 78.186q0 15.42-11.308 25.7t-25.7 11.308-25.7-11.308-11.308-25.7 11.308-25.7 25.7-11.308 25.7 11.308 11.308 25.7zM808.016 408.177q0 29.812-22.616 51.4t-51.4 22.616h-201.49q0 32.896 27.756 91.492t26.728 91.492q0 56.54-17.476 83.268t-74.016 27.756q-14.392-15.42-21.588-49.344t-17.476-71.96-33.924-62.708q-13.364-13.364-44.204-52.428-2.056-3.084-13.364-17.476t-18.504-22.616-19.532-24.672-22.616-25.7-22.616-19.532-22.616-16.448-20.56-5.14h-18.504v-366.999h18.504q7.196 0 18.504-1.028t18.504-4.112 21.588-6.168 20.56-7.196 20.56-7.196 16.448-5.14q121.304-42.148 196.35-42.148h68.876q109.996 0 109.996 95.604 0 15.42-2.056 31.868 16.448 9.252 26.728 30.84t10.28 42.148-10.28 39.064q29.812 28.784 29.812 68.876 0 13.364-5.14 31.868t-14.392 26.728q18.504 1.028 30.84 26.728t12.336 46.26zM881.005 409.205q0-51.4-27.756-93.548 5.14-18.504 5.14-39.064 0-44.204-21.588-83.268 1.028-12.336 1.028-24.672 0-57.568-33.924-101.772 0-80.184-49.344-126.444t-129.528-46.26h-74.016q-55.512 0-108.968 13.364t-124.388 37.008q-66.82 23.644-79.156 23.644h-165.509q-29.812 0-51.4 21.588t-21.588 51.4v366.999q0 30.84 21.588 52.428t51.4 21.588h157.285q20.56 13.364 79.156 88.408 32.896 43.176 61.68 74.016 13.364 14.392 19.532 48.316t17.476 72.988 35.98 61.68q22.616 21.588 51.4 21.588 48.316 0 86.352-18.504t58.596-58.596 20.56-106.912q0-52.428-27.756-109.996h100.744q59.624 0 103.828-43.176t43.176-102.8z" />
<glyph unicode="&#xe82c;" glyph-name="reward-logo" horiz-adv-x="1362" d="M203.546 810.128c-12.336-16.448-26.728-59.624-31.868-102.8-5.14-38.036-10.28-64.764-29.812-140.837-5.14-18.504-11.308-50.372-14.392-70.932-4.112-20.56-9.252-47.288-14.392-58.596s-9.252-33.924-9.252-49.344c0-15.42-3.084-38.036-7.196-50.372-6.168-11.308-11.308-35.98-14.392-54.484s-9.252-48.316-13.364-66.82c-9.252-35.98-21.588-95.604-30.84-149.061-4.112-18.504-9.252-49.344-14.392-67.848-27.756-113.080-28.784-129.528-13.364-150.089 9.252-12.336 22.616-13.364 121.304-11.308l111.024 2.056-3.084 30.84c-1.028 16.448 2.056 32.896 5.14 35.98 20.56 12.336-5.14 18.504-69.904 18.504h-70.932v25.7c0 14.392 4.112 34.952 8.224 47.288 5.14 11.308 11.308 38.036 14.392 57.568 3.084 21.588 9.252 52.428 13.364 70.932 5.14 18.504 13.364 60.652 20.56 93.548 6.168 32.896 15.42 72.988 19.532 89.436s10.28 48.316 13.364 70.932c3.084 22.616 9.252 48.316 14.392 57.568 5.14 8.224 8.224 28.784 8.224 46.26 0 16.448 5.14 42.148 11.308 57.568 6.168 14.392 11.308 35.98 11.308 46.26 0 11.308 5.14 34.952 11.308 52.428s11.308 41.12 11.308 51.4c0 11.308 3.084 23.644 8.224 28.784 7.196 7.196 91.492 9.252 334.103 9.252 306.347 0 325.879 1.028 337.187 13.364 16.448 18.504 15.42 48.316 0 63.736-13.364 11.308-49.344 12.336-372.139 12.336-277.563 0-359.803-2.056-364.943-9.252zM1065.018 810.128c0-5.14 4.112-13.364 9.252-18.504 6.168-7.196 6.168-14.392 0-27.756-5.14-10.28-9.252-22.616-9.252-26.728s37.008-7.196 86.352-7.196c97.66 0 102.8-3.084 82.24-54.484-6.168-17.476-12.336-41.12-12.336-51.4 0-11.308-3.084-28.784-8.224-41.12-4.112-11.308-10.28-39.064-13.364-61.68s-9.252-56.54-14.392-76.072c-4.112-19.532-12.336-51.4-16.448-70.932-5.14-19.532-11.308-52.428-14.392-72.988-3.084-21.588-9.252-45.232-14.392-53.456-4.112-8.224-8.224-29.812-8.224-46.26s-5.14-43.176-10.28-57.568c-6.168-14.392-11.308-37.008-11.308-50.372 0-12.336-5.14-38.036-10.28-56.54-6.168-18.504-13.364-49.344-17.476-70.932l-6.168-37.008-347.467-4.112-347.467-3.084-15.42-20.56c-18.504-23.644-19.532-27.756-2.056-48.316l14.392-17.476h376.251c353.635 0 376.251 1.028 387.559 13.364 7.196 8.224 12.336 21.588 12.336 30.84s5.14 28.784 11.308 43.176c6.168 14.392 11.308 37.008 11.308 48.316 0 20.56 9.252 63.736 30.84 152.145 4.112 15.42 10.28 46.26 13.364 66.82s10.28 46.26 14.392 57.568c5.14 12.336 8.224 34.952 8.224 51.4 0 15.42 4.112 37.008 8.224 45.232 5.14 8.224 11.308 32.896 14.392 53.456s9.252 52.428 13.364 70.932c4.112 19.532 13.364 60.652 20.56 93.548 6.168 32.896 14.392 72.988 18.504 89.436 16.448 65.792 22.616 128.5 15.42 148.033l-8.224 19.532h-130.556c-101.772 0-130.556-2.056-130.556-9.252zM385.503 520.23c-8.224-4.112-13.364-15.42-13.364-29.812 0-13.364-4.112-38.036-10.28-57.568-11.308-37.008-24.672-101.772-33.924-161.397-3.084-19.532-9.252-45.232-12.336-55.512-5.14-10.28-9.252-33.924-11.308-52.428l-2.056-32.896 66.82-2.056 68.876-3.084 12.336 34.952c6.168 19.532 11.308 45.232 11.308 57.568 0 11.308 5.14 32.896 11.308 48.316 6.168 13.364 11.308 35.98 11.308 48.316 0 24.672 17.476 70.932 34.952 89.436 17.476 19.532 66.82 17.476 77.1-2.056 9.252-18.504 3.084-96.632-12.336-132.613-6.168-13.364-10.28-37.008-10.28-51.4 0-13.364-5.14-37.008-11.308-51.4-6.168-16.448-9.252-29.812-5.14-33.924s38.036-5.14 77.1-4.112l69.904 2.056 4.112 32.896c3.084 18.504 9.252 43.176 13.364 54.484 5.14 12.336 8.224 32.896 8.224 47.288s5.14 38.036 11.308 52.428c6.168 14.392 11.308 34.952 11.308 45.232 0 49.344 74.016 74.016 100.744 33.924 13.364-19.532 11.308-38.036-19.532-162.425-12.336-49.344-20.56-96.632-16.448-101.772 1.028-4.112 32.896-6.168 68.876-6.168h65.792l12.336 34.952c6.168 19.532 11.308 44.204 11.308 56.54 0 11.308 5.14 32.896 11.308 48.316 6.168 13.364 11.308 32.896 11.308 42.148 0 8.224 5.14 39.064 12.336 68.876 11.308 50.372 11.308 54.484-2.056 87.38-19.532 49.344-47.288 63.736-119.248 63.736-51.4 0-57.568-1.028-89.436-25.7-37.008-27.756-44.204-27.756-76.072 7.196-16.448 17.476-24.672 18.504-76.072 18.504-54.484 0-72.988-5.14-102.8-34.952-15.42-15.42-29.812-10.28-31.868 11.308-3.084 20.56-3.084 20.56-58.596 21.588-30.84 2.056-61.68-1.028-68.876-6.168z" />
<glyph unicode="&#xe82d;" glyph-name="minus" horiz-adv-x="808" d="M808.016 426.681v-109.996q0-22.616-16.448-39.064t-39.064-15.42h-696.991q-23.644 0-39.064 15.42t-16.448 39.064v109.996q0 23.644 16.448 39.064t39.064 16.448h696.991q22.616 0 39.064-16.448t16.448-39.064z" />
<glyph unicode="&#xe82e;" glyph-name="star" horiz-adv-x="954" d="M955.022 478.082q0-12.336-15.42-27.756l-208.686-202.518 49.344-286.815q1.028-4.112 1.028-12.336 0-11.308-6.168-19.532t-17.476-9.252q-10.28 0-22.616 7.196l-258.030 135.697-257.002-135.697q-13.364-7.196-23.644-7.196-11.308 0-17.476 9.252t-6.168 19.532q0 4.112 1.028 12.336l49.344 286.815-208.686 202.518q-14.392 15.42-14.392 27.756 0 21.588 31.868 26.728l287.843 41.12 129.528 261.114q11.308 23.644 27.756 23.644t28.784-23.644l128.5-261.114 287.843-41.12q32.896-5.14 32.896-26.728z" />
<glyph unicode="&#xe82f;" glyph-name="star-empty" horiz-adv-x="954" d="M651.758 273.508l175.79 169.621-241.582 35.98-108.968 218.966-107.94-218.966-242.61-35.98 175.79-169.621-42.148-241.582 216.91 114.108 216.91-114.108zM955.022 478.082q0-12.336-15.42-27.756l-208.686-202.518 49.344-286.815q1.028-4.112 1.028-12.336 0-28.784-23.644-28.784-10.28 0-22.616 7.196l-258.030 135.697-257.002-135.697q-13.364-7.196-23.644-7.196-11.308 0-17.476 9.252t-6.168 19.532q0 4.112 1.028 12.336l49.344 286.815-208.686 202.518q-14.392 15.42-14.392 27.756 0 21.588 31.868 26.728l287.843 41.12 129.528 261.114q11.308 23.644 27.756 23.644t28.784-23.644l128.5-261.114 287.843-41.12q32.896-5.14 32.896-26.728z" />
<glyph unicode="&#xe830;" glyph-name="star-half" horiz-adv-x="954" d="M680.543 300.236l147.005 142.893-203.546 29.812-38.036 6.168-17.476 34.952-91.492 184.014v-552.042l33.924-17.476 182.986-96.632-34.952 203.546-7.196 38.036zM939.602 450.326l-207.658-202.518 48.316-286.815q3.084-19.532-3.084-29.812t-19.532-11.308q-9.252 0-22.616 7.196l-258.030 135.697-257.002-135.697q-13.364-7.196-23.644-7.196-12.336 0-19.532 11.308t-3.084 29.812l49.344 286.815-208.686 202.518q-18.504 18.504-13.364 33.924t30.84 20.56l287.843 41.12 129.528 261.114q11.308 23.644 27.756 23.644t28.784-23.644l128.5-261.114 287.843-41.12q25.7-4.112 30.84-20.56t-13.364-33.924z" />
<glyph unicode="&#xe831;" glyph-name="envelope" d="M0-54.427l333.075 351.579 180.93-102.8 180.93 102.8 333.075-351.579h-1028.010zM0 62.766v425.596l261.114-151.117zM0 579.856v144.949h1028.010v-144.949l-514.004-292.983zM766.895 337.245l261.114 151.117v-425.596z" />
<glyph unicode="&#xe832;" glyph-name="ok" d="M958.106 524.342q0-22.616-15.42-39.064l-493.444-493.444q-16.448-15.42-39.064-15.42t-39.064 15.42l-285.787 285.787q-15.42 16.448-15.42 39.064t15.42 39.064l78.128 78.128q16.448 16.448 39.064 16.448t39.064-16.448l168.593-169.621 376.251 377.279q16.448 16.448 39.064 16.448t39.064-16.448l78.128-78.128q15.42-16.448 15.42-39.064z" />
<glyph unicode="&#xe833;" glyph-name="spin" d="M878.949-15.363c-194.294-195.322-534.566-176.818-724.747 13.364-195.322 195.322-205.602 507.836-28.784 714.467 11.308 13.364 21.588 26.728 35.98 34.952 37.008 23.644 87.38 18.504 120.276-13.364 30.84-31.868 35.98-78.128 16.448-115.136-5.14-9.252-9.252-15.42-16.448-22.616-143.921-155.229-149.061-389.615-8.224-530.454 157.285-157.285 418.4-124.388 557.182 34.952 108.968 125.416 145.977 305.319 79.156 463.632-85.324 203.546-313.543 299.151-524.284 228.218v1.028c242.61 84.296 505.78-24.672 604.47-259.058 72.988-171.677 38.036-364.943-74.016-506.808-11.308-15.42-23.644-29.812-37.008-43.176z" />
<glyph unicode="&#xe900;" glyph-name="phone" horiz-adv-x="805" d="M804.571 169.143c0-20.571-9.143-60.571-17.714-79.429-12-28-44-46.286-69.714-60.571-33.714-18.286-68-29.143-106.286-29.143-53.143 0-101.143 21.714-149.714 39.429-34.857 12.571-68.571 28-100 47.429-97.143 60-214.286 177.143-274.286 274.286-19.429 31.429-34.857 65.143-47.429 100-17.714 48.571-39.429 96.571-39.429 149.714 0 38.286 10.857 72.571 29.143 106.286 14.286 25.714 32.571 57.714 60.571 69.714 18.857 8.571 58.857 17.714 79.429 17.714 4 0 8 0 12-1.714 12-4 24.571-32 30.286-43.429 18.286-32.571 36-65.714 54.857-97.714 9.143-14.857 26.286-33.143 26.286-50.857 0-34.857-103.429-85.714-103.429-116.571 0-15.429 14.286-35.429 22.286-49.143 57.714-104 129.714-176 233.714-233.714 13.714-8 33.714-22.286 49.143-22.286 30.857 0 81.714 103.429 116.571 103.429 17.714 0 36-17.143 50.857-26.286 32-18.857 65.143-36.571 97.714-54.857 11.429-5.714 39.429-18.286 43.429-30.286 1.714-4 1.714-8 1.714-12z" />
<glyph unicode="&#xe901;" glyph-name="dash" d="M481.665 619.168c-64.189-4.708-120.674-20.455-177.33-49.467-77.367-39.626-141.641-99.876-187.258-175.618-40.909-67.867-64.786-151.055-65.216-226.796l-0.085-17.544 2.825-5.735c3.166-6.418 8.902-12.239 15.405-15.405l4.023-1.969 322.737 0.427 2.825-7.104c5.735-14.037 13.522-26.016 24.392-37.313 18.23-18.827 40.053-30.554 66.84-35.774 11.812-2.31 35.604-2.054 47.498 0.515 12.665 2.654 20.284 5.391 32.093 11.212 25.59 12.665 46.386 35.089 57 61.364l2.825 7.104 321.881 0.427 4.964 2.395c6.333 3.166 12.58 9.414 15.746 15.746l2.395 4.964-0.085 17.974c-0.256 45.017-9.158 94.313-25.419 140.784-6.677 19.172-12.58 33.205-22.509 53.063-58.027 116.481-162.095 203.776-285.508 239.635-25.419 7.445-54.090 12.924-81.989 15.92-15.405 1.542-62.647 2.31-78.052 1.198zM493.135 529.562c0.256-32.008 0.171-31.325 6.162-37.313 8.216-8.216 20.199-8.216 28.415 0 5.991 5.991 5.906 5.306 6.162 37.313l0.256 28.841 3.166-0.427c1.713-0.171 6.247-0.6 10.014-0.856 14.634-1.027 48.354-6.162 49.811-7.616 0.171-0.171-2.74-11.724-6.503-25.59-3.852-13.866-6.933-26.702-6.933-28.415 0-7.704 5.391-16.176 12.409-19.342 8.731-4.023 20.54 0.085 25.59 8.902 1.112 1.969 4.964 14.634 8.643 28.415 3.596 13.692 6.677 24.904 6.848 25.075 1.198 1.283 54.86-20.967 58.539-24.307 0.171-0.171-5.306-10.014-12.153-21.908-14.378-24.989-15.149-26.617-15.149-32.093 0.171-14.293 12.324-23.536 25.76-19.598 7.704 2.225 9.843 4.879 24.221 29.868l13.18 22.85 9.67-6.933c10.87-7.704 26.617-20.284 34.833-27.729l5.391-4.964-20.028-20.199c-21.311-21.567-21.994-22.509-21.994-30.895 0-8.643 5.306-16.432 12.495-18.657 4.964-1.454 12.153-1.283 16.005 0.515 1.969 0.856 10.785 8.987 22.509 20.711l19.257 19.257 4.708-5.135c8.816-9.499 34.662-44.417 33.635-45.273-0.171-0.171-9.584-5.562-20.881-12.068s-21.738-12.665-23.109-13.692c-1.454-1.112-3.767-4.023-5.135-6.503-4.879-9.072-2.825-20.028 4.794-25.59 4.794-3.422 8.643-4.535 14.719-4.108 5.050 0.256 6.503 1.027 27.217 12.924 12.068 6.933 22.253 12.58 22.765 12.58 2.139 0 25.675-56.314 24.136-57.683-0.171-0.171-11.297-3.252-24.648-6.848-13.351-3.508-25.59-7.274-27.129-8.301-5.135-3.166-9.758-11.638-9.758-17.886 0-7.36 6.933-16.432 14.207-18.657 6.077-1.798 9.843-1.198 34.232 5.391 13.095 3.508 23.877 6.247 24.048 6.162 1.027-1.027 7.104-43.134 7.104-49.125v-1.969l-311.953-0.427-4.964-2.395c-10.87-5.391-17.288-14.978-18.657-27.985-0.856-8.387-2.825-14.122-7.018-20.796-12.495-19.428-36.030-31.752-58.027-30.298-21.652 1.368-43.734 16.517-53.919 36.972-2.74 5.476-3.596 8.387-4.279 14.463-1.027 9.328-3.681 15.32-9.328 21.055-2.31 2.225-6.418 5.22-9.158 6.589l-4.964 2.395-311.953-0.686v2.054c0 6.762 6.333 48.44 7.53 49.725 0.341 0.256 11.041-2.31 23.706-5.735 12.751-3.508 24.819-6.333 26.873-6.418 6.162 0 10.441 1.713 15.234 6.418 7.018 6.848 8.045 14.805 2.91 23.877-3.937 7.189-6.333 8.301-33.035 15.576-13.18 3.596-24.221 6.677-24.563 6.848-1.883 1.198 21.14 57.683 23.536 57.683 0.515 0 10.697-5.65 22.765-12.58 20.711-11.897 22.167-12.665 27.217-12.924 6.077-0.427 9.929 0.686 14.719 4.108 7.616 5.562 9.67 16.517 4.794 25.59-1.368 2.481-3.681 5.391-5.135 6.503-1.368 1.027-11.897 7.189-23.28 13.692-13.095 7.445-20.54 12.153-20.199 12.751 6.933 11.724 30.124 42.535 36.116 48.013l1.883 1.627 19.172-19.172c11.724-11.812 20.455-19.854 22.423-20.711 3.767-1.713 11.468-1.969 15.746-0.6 9.929 3.337 14.978 14.549 11.724 25.931-0.856 2.91-4.535 7.104-20.967 23.706l-20.028 20.199 5.391 4.964c8.216 7.445 23.962 20.028 34.833 27.729l9.67 6.933 13.18-22.85c14.378-24.989 16.517-27.644 24.221-29.868 13.436-3.937 25.59 5.306 25.76 19.598 0 5.476-0.771 7.104-15.149 32.093-6.848 11.897-12.324 21.738-12.153 21.908 3.681 3.337 57.341 25.59 58.539 24.307 0.171-0.171 3.166-11.212 6.762-24.648s7.189-25.846 7.96-27.644c2.825-6.503 11.638-11.724 19.428-11.724 9.929 0.085 19.342 10.27 19.342 20.967 0 1.713-3.081 14.549-6.933 28.415-3.767 13.866-6.677 25.419-6.503 25.59 1.454 1.454 34.833 6.503 52.377 7.96 4.708 0.427 8.987 0.771 9.584 0.856 0.771 0.085 1.112-6.933 1.283-28.756zM614.92 393.74c-8.987-4.193-8.643-3.596-56.826-86.954-24.904-43.049-45.874-78.567-46.471-78.823-0.6-0.341-4.023-1.027-7.53-1.542-8.902-1.368-19.001-6.418-25.846-12.839-19.684-18.486-21.311-48.955-3.852-70.436 4.794-5.821 14.634-12.58 22.082-15.234 7.53-2.569 20.54-3.252 28.5-1.368 36.545 8.557 51.606 50.923 28.927 80.877-3.166 4.108-3.337 4.794-2.31 6.418 6.162 9.67 86.697 150.028 87.895 153.109 3.252 8.557 1.368 17.118-5.306 23.621-5.735 5.562-12.068 6.589-19.257 3.166z" />
<glyph unicode="&#xe902;" glyph-name="play" d="M192.752 743.564l642.506-385.503-642.506-385.503z" />
<glyph unicode="&#xe903;" glyph-name="angle-double-down" horiz-adv-x="662" d="M616.691 358.062c0-4.587-2.294-9.753-5.738-13.195l-267.329-267.329c-3.441-3.441-8.603-5.738-13.195-5.738s-9.753 2.294-13.195 5.738l-267.329 267.329c-3.441 3.441-5.738 8.603-5.738 13.195s2.294 9.753 5.738 13.195l28.683 28.683c3.441 3.441 8.032 5.738 13.195 5.738 4.587 0 9.753-2.294 13.195-5.738l225.451-225.451 225.451 225.451c3.441 3.441 8.603 5.738 13.195 5.738s9.753-2.294 13.195-5.738l28.683-28.683c3.441-3.441 5.738-8.603 5.738-13.195zM616.691 578.348c0-4.587-2.294-9.753-5.738-13.195l-267.329-267.329c-3.441-3.441-8.603-5.738-13.195-5.738s-9.753 2.294-13.195 5.738l-267.329 267.329c-3.441 3.441-5.738 8.603-5.738 13.195s2.294 9.753 5.738 13.195l28.683 28.683c3.441 3.441 8.032 5.738 13.195 5.738 4.587 0 9.753-2.294 13.195-5.738l225.451-225.451 225.451 225.451c3.441 3.441 8.603 5.738 13.195 5.738s9.753-2.294 13.195-5.738l28.683-28.683c3.441-3.441 5.738-8.603 5.738-13.195z" />
<glyph unicode="&#xe904;" glyph-name="pause" d="M128.5 743.564h321.253v-771.007h-321.253zM578.256 743.564h321.253v-771.007h-321.253z" />
<glyph unicode="&#xe905;" glyph-name="pinterest-alt" d="M442.918 166.492c-27.035-141.557-59.984-277.254-157.698-348.136-30.119 213.929 44.255 374.555 78.849 545.102-58.956 99.204 7.094 298.739 131.328 249.549 152.916-60.447-132.407-368.644 59.112-407.194 199.999-40.143 281.623 346.953 157.594 472.833-179.131 181.855-521.509 4.266-479.361-256.077 10.229-63.634 75.97-82.91 26.267-170.752-114.675 25.393-148.906 115.857-144.487 236.442 7.094 197.378 177.281 335.491 348.033 354.663 215.933 24.211 418.606-79.31 446.619-282.395 31.51-229.297-97.455-477.665-328.398-459.778-62.606 4.884-88.821 35.929-137.855 65.741z" />
<glyph unicode="&#xe906;" glyph-name="video-play" d="M514.004 872.067c-283.589 0-514.004-230.416-514.004-514.004s230.416-514.004 514.004-514.004c283.589 0 514.004 230.416 514.004 514.004s-230.416 514.004-514.004 514.004zM361.576 141.825v432.473l375.756-216.237-375.756-216.237z" />
<glyph unicode="&#xe907;" glyph-name="video-followers" horiz-adv-x="1265" d="M0 714.501c176.611 0 353.224 0 533.298 0-21.025-17.069-39.579-31.908-57.88-46.501-43.783-34.877-139.508-111.558-139.508-111.558s-120.711 0-176.859 0c0-184.528 0-368.56 0-553.334 262.939 0 526.125 0 790.549 0 0 6.43 0 12.864 0 19.294l0.246 137.283c0 0 105.621 85.090 158.060 126.894 0-148.907 0-295.837 0-442.519-369.302 0-738.604 0-1107.906 0 0 290.148 0 580.297 0 870.444zM870.94 716.48c0 52.192 0 102.652 0 155.587 132.335-105.867 262.939-210.252 394.78-315.873-131.593-105.374-262.197-209.757-394.78-315.873 0 53.675 0 104.878 0 156.576-224.351 12.121-402.448-81.379-555.561-235.483 2.722 152.372 60.109 280.501 167.46 385.875 106.857 105.374 235.483 163.75 388.101 169.191z" />
<glyph unicode="&#xe908;" glyph-name="volume-high" horiz-adv-x="1092" d="M893.526-53.584c-12.334 0-24.662 4.706-34.074 14.112-18.816 18.818-18.816 49.328 0 68.147 87.982 87.986 136.436 204.96 136.436 329.385 0 124.423-48.454 241.4-136.436 329.383-18.816 18.818-18.816 49.33 0 68.147s49.33 18.816 68.147 0c106.184-106.186 164.664-247.365 164.664-397.53s-58.48-291.345-164.664-397.53c-9.408-9.408-21.74-14.114-34.072-14.114zM722.347 37.281c-12.334 0-24.662 4.706-34.074 14.112-18.816 18.816-18.816 49.328 0 68.147 131.518 131.518 131.518 345.517 0 477.036-18.816 18.818-18.816 49.33 0 68.147 18.816 18.814 49.33 18.816 68.147 0 81.914-81.91 127.026-190.818 127.026-306.662 0-115.842-45.112-224.752-127.026-306.666-9.408-9.41-21.74-14.116-34.072-14.116v0zM551.17 128.145c-12.334 0-24.664 4.706-34.074 14.114-18.818 18.818-18.818 49.326 0 68.145 81.417 81.417 81.417 213.892 0 295.308-18.818 18.818-18.818 49.33 0 68.147s49.328 18.816 68.147 0c118.994-118.994 118.994-312.611 0-431.605-9.408-9.404-21.74-14.11-34.072-14.11zM417.635-91.693c-8.36 0-16.576 3.262-22.722 9.41l-247.592 247.592h-115.194c-17.74 0-32.124 14.382-32.124 32.124v321.253c0 17.74 14.384 32.124 32.124 32.124h115.194l247.592 247.594c9.19 9.19 23.004 11.938 35.010 6.964 12.006-4.972 19.83-16.686 19.83-29.68v-835.258c0-12.996-7.828-24.708-19.83-29.68-3.974-1.648-8.15-2.444-12.288-2.444z" />
<glyph unicode="&#xe909;" glyph-name="volume-mute" d="M963.758 250.494v-85.184h-85.184l-107.568 107.568-107.568-107.568h-85.184v85.184l107.568 107.568-107.568 107.568v85.184h85.184l107.568-107.568 107.568 107.568h85.184v-85.184l-107.568-107.568 107.568-107.568zM417.635-91.693c-8.36 0-16.576 3.262-22.722 9.41l-247.592 247.592h-115.194c-17.74 0-32.124 14.382-32.124 32.124v321.253c0 17.74 14.384 32.124 32.124 32.124h115.194l247.592 247.594c9.19 9.19 23.004 11.938 35.010 6.964 12.006-4.972 19.83-16.686 19.83-29.68v-835.258c0-12.996-7.828-24.708-19.83-29.68-3.974-1.648-8.15-2.444-12.288-2.444z" />
<glyph unicode="&#xe90a;" glyph-name="warning-outline" d="M512.5 611.951c23.959 0 47.791-15.119 65.941-45.356l252.492-420.848c36.344-60.432 8.285-109.888-62.184-109.888h-512.5c-70.469 0-98.528 49.499-62.184 109.888l252.492 420.848c18.151 30.238 41.982 45.356 65.941 45.356zM512.5 697.367c-55.35 0-106.003-31.604-139.187-86.741l-252.492-420.934c-33.569-55.906-37.241-115.526-10.037-163.573s80.249-75.679 145.465-75.679h512.5c65.216 0 118.303 27.59 145.465 75.637s23.532 107.668-10.037 163.573l-252.492 420.848c-33.184 55.265-83.837 86.869-139.187 86.869zM568.022 163.982c0-30.663-24.857-55.521-55.521-55.521s-55.521 24.857-55.521 55.521 24.857 55.521 55.521 55.521c30.663 0 55.521-24.857 55.521-55.521zM576.563 420.233c0 35.448-28.657 64.063-64.063 64.063s-64.063-28.615-64.063-64.063c0-8.499 1.751-16.613 4.741-24.002 23.66-58.766 59.322-146.831 59.322-146.831s35.662 88.065 59.407 146.831c2.904 7.388 4.656 15.503 4.656 24.002z" />
<glyph unicode="&#xe947;" glyph-name="location" d="M513.001 884.045c-177.078 0-320.626-143.548-320.626-320.626 0-320.626 320.626-705.377 320.626-705.377s320.626 384.751 320.626 705.377c0 177.078-143.55 320.626-320.626 320.626zM513.001 371.044c-106.248 0-192.376 86.128-192.376 192.376s86.128 192.376 192.376 192.376 192.376-86.128 192.376-192.376-86.128-192.376-192.376-192.376z" />
<glyph unicode="&#xe977;" glyph-name="quotes-left" d="M225.44 435.168c123.954 0 224.438-100.486 224.438-224.438 0-123.954-100.484-224.438-224.438-224.438s-224.438 100.484-224.438 224.438l-1.002 32.062c0 247.908 200.968 448.876 448.876 448.876v-128.25c-85.642 0-166.158-33.352-226.716-93.91-11.656-11.658-22.296-24.062-31.892-37.092 11.46 1.804 23.206 2.752 35.172 2.752zM802.567 435.168c123.952 0 224.438-100.486 224.438-224.438 0-123.954-100.486-224.438-224.438-224.438s-224.438 100.484-224.438 224.438l-1.002 32.062c0 247.908 200.968 448.876 448.876 448.876v-128.25c-85.642 0-166.158-33.352-226.716-93.91-11.658-11.658-22.298-24.062-31.894-37.092 11.462 1.804 23.206 2.752 35.174 2.752z" />
</font>
</defs>
</svg>
