<svg width="115" height="184" viewBox="0 0 115 184" fill="none" xmlns="http://www.w3.org/2000/svg">
<path d="M100.9 183.901L11.4 182.801C5.00002 182.701 0 177.501 0 171.201L1.90002 11.4014C2.00002 5.00145 7.19998 -0.0985542 13.6 0.00144579L103.1 1.10145C109.4 1.20145 114.5 6.40145 114.5 12.7014L112.6 172.501C112.5 178.901 107.3 184.001 100.9 183.901ZM13.5 4.10145C9.4 4.10145 5.90002 7.40145 5.90002 11.5014L4 171.301C4 175.501 7.30002 178.901 11.4 178.901L100.9 180.001C105 180.001 108.4 176.701 108.5 172.601L110.4 12.9014C110.4 8.70145 107.1 5.30145 103 5.30145L13.5 4.10145Z" fill="#ffffff"/>
<path d="M89.8993 158.201L22.8993 157.401C17.7993 157.301 13.6992 153.101 13.6992 148.001L15.1992 23.6014C15.2992 18.5014 19.4992 14.4014 24.5992 14.4014L91.4993 15.2014C96.5993 15.3014 100.699 19.5014 100.699 24.6014L99.1992 149.001C99.1992 154.101 94.9993 158.201 89.8993 158.201ZM24.5992 18.4014C21.6992 18.4014 19.2992 20.7014 19.2992 23.6014L17.7992 148.001C17.7992 150.901 20.0993 153.301 22.9993 153.301L89.8993 154.101C92.7993 154.101 95.1992 151.801 95.1992 148.901L96.6992 24.5014C96.6992 21.6014 94.3993 19.2014 91.4993 19.2014L24.5992 18.4014Z" fill="#ffffff"/>
<path d="M56.3002 174.501C52.2002 174.501 48.9003 171.101 49.0003 167.001C49.0003 162.901 52.4003 159.601 56.5003 159.701C60.6003 159.701 63.9002 163.101 63.8002 167.201C63.7002 171.301 60.3002 174.601 56.3002 174.501ZM56.4003 163.701C54.5003 163.701 53.0003 165.201 52.9003 167.101C52.9003 169.001 54.4002 170.501 56.3002 170.601C58.2002 170.601 59.7002 169.101 59.8002 167.201C59.8002 165.301 58.3003 163.701 56.4003 163.701Z" fill="#ffffff"/>
<path d="M44.2007 59.8016C43.7007 59.8016 43.2007 59.6016 42.8007 59.2016L31.9008 48.0016C31.1008 47.2016 31.1008 45.9016 31.9008 45.2016C32.7008 44.4016 34.0007 44.4016 34.7007 45.2016L45.6007 56.4016C46.4007 57.2016 46.4007 58.4016 45.6007 59.2016C45.2007 59.6016 44.7007 59.8016 44.2007 59.8016Z" fill="#F8DC38"/>
<path d="M33.0996 59.7013C31.9996 59.7013 31.0996 58.8013 31.0996 57.7013C31.0996 57.2013 31.2996 56.7013 31.6996 56.3013L42.8997 45.4013C43.6997 44.6013 44.9996 44.6013 45.6996 45.4013C46.4996 46.2013 46.4996 47.5013 45.6996 48.2013L34.4996 59.1013C34.0996 59.5013 33.5996 59.7013 33.0996 59.7013Z" fill="#F8DC38"/>
<path d="M52.2008 65.8016L25.3008 65.5016L25.6008 38.6016L52.5009 38.9016L52.2008 65.8016ZM29.3008 61.5016L48.2008 61.7016L48.4009 42.8016L29.5009 42.6016L29.3008 61.5016Z" fill="#ffffff"/>
<path d="M86.1003 82.8015L59.9004 82.5015C58.8004 82.5015 57.9004 81.6015 57.9004 80.5015C57.9004 79.4015 58.8004 78.5015 59.9004 78.5015L86.0004 78.8015C87.1004 78.8015 88.0004 79.7015 88.0004 80.8015C88.0004 81.9015 87.2003 82.8015 86.1003 82.8015Z" fill="#ffffff"/>
<path d="M77.1008 90.9012L59.8008 90.7012C58.7008 90.7012 57.8008 89.8012 57.8008 88.7012C57.8008 87.6012 58.7008 86.7012 59.8008 86.7012L77.1008 86.9012C78.2008 86.9012 79.1008 87.8012 79.1008 88.9012C79.1008 90.0012 78.2008 90.9012 77.1008 90.9012Z" fill="#ffffff"/>
<path d="M86.3993 50.6013L60.1992 50.3013C59.0992 50.3013 58.1992 49.4013 58.1992 48.3013C58.1992 47.2013 59.0992 46.3013 60.1992 46.3013L86.2992 46.6013C87.3992 46.6013 88.2992 47.5013 88.2992 48.6013C88.2992 49.7013 87.4993 50.6013 86.3993 50.6013Z" fill="#ffffff"/>
<path d="M77.4993 58.6014L60.1992 58.4014C59.0992 58.4014 58.1992 57.5014 58.1992 56.4014C58.1992 55.3014 59.0992 54.4014 60.1992 54.4014L77.4993 54.6014C78.5993 54.6014 79.4993 55.5014 79.4993 56.6014C79.4993 57.7014 78.5993 58.6014 77.4993 58.6014Z" fill="#ffffff"/>
<path d="M85.6996 115.501L59.5996 115.201C58.4996 115.201 57.5996 114.301 57.5996 113.201C57.5996 112.101 58.4996 111.201 59.5996 111.201L85.7996 111.501C86.8996 111.501 87.7996 112.401 87.7996 113.501C87.7996 114.601 86.7996 115.501 85.6996 115.501Z" fill="#ffffff"/>
<path d="M76.7999 123.501L59.5 123.301C58.4 123.301 57.5 122.401 57.5 121.301C57.5 120.201 58.4 119.301 59.5 119.301L76.7999 119.501C77.8999 119.501 78.7999 120.401 78.7999 121.501C78.7999 122.601 77.8999 123.501 76.7999 123.501Z" fill="#ffffff"/>
<path d="M47.4004 130.701L28.5004 130.401L28.7003 111.501L46.0004 111.701L48.4004 109.501L50.4004 107.801L24.7003 107.501L24.4004 134.401L51.3003 134.701L51.6003 114.401L47.5004 119.101L47.4004 130.701Z" fill="#ffffff"/>
<path d="M52.0009 80.5015L47.9009 85.1015L47.8008 96.2015L28.9009 96.0015L29.1008 77.0015L47.0009 77.2015L48.8008 75.6015L51.4009 73.3015L25.1008 73.0015L24.8008 99.9015L51.8008 100.201L52.0009 80.5015Z" fill="#ffffff"/>
<path d="M55.5 73.3013V72.8013H55L52 75.4013V77.4013L55.5 73.3013Z" fill="#F8DC38"/>
<path d="M38.8003 87.2015L37.2003 84.6015C36.5003 83.5015 36.1004 82.8015 35.9004 82.4015L32.4004 84.8015C32.8004 85.3015 32.9004 85.5015 33.4004 86.2015L37.0004 91.4015C37.3004 91.9015 37.8004 92.1015 38.4004 92.1015C38.9004 92.1015 39.3003 91.9015 39.6003 91.6015L47.9004 82.0015V79.0015L38.8003 87.2015Z" fill="#F8DC38"/>
<path d="M52 75.4014L50.2 77.0014L48 79.0014V82.0014L52 77.4014V75.4014Z" fill="#F8DC38"/>
<path d="M36.7999 118.501C36.0999 117.401 35.7 116.701 35.5 116.301L32 118.701C32.4 119.201 32.5 119.401 33 120.101L36.6 125.301C37.1 126.101 38.2 126.301 39 125.701C39.1 125.601 39.2 125.601 39.2 125.501L47.5 115.901V112.901L38.2999 121.101L36.7999 118.501Z" fill="#F8DC38"/>
<path d="M55.1996 107.301L55.0996 106.701H54.5996L51.5996 109.301V111.401L55.1996 107.301Z" fill="#F8DC38"/>
<path d="M51.5996 111.401V109.301L49.7996 111.001L47.5996 113.001V116.001L51.5996 111.401Z" fill="#F8DC38"/>
</svg>
